<svg width="25" height="29" viewBox="0 0 25 29" fill="none" xmlns="http://www.w3.org/2000/svg">
<path d="M3.63603 22.6415H25V0H3.57706C2.6293 0.00304723 1.72123 0.380894 1.05106 1.05106C0.380894 1.72123 0.00304723 2.6293 0 3.57706V24.4251H0.000648678C0.000648678 24.434 0 24.4428 0 24.4518C0 26.5391 1.63809 28.3021 3.57706 28.3021H25V26.4151H3.57706C2.69245 26.4151 1.88679 25.4793 1.88679 24.4517C1.88679 23.4705 2.68779 22.6415 3.63603 22.6415ZM18.8679 1.90643V12.0961L16.0142 9.59074L13.2075 12.0814V1.90643H18.8679ZM11.3208 1.88679V14.6226H13.1864L16.021 12.1074L18.8859 14.6226H20.7547V1.88679H23.1132V20.7547H5.66509L5.66038 1.88679H11.3208ZM3.57706 1.88679H3.77358L3.77807 20.7547H3.63579C3.02228 20.7548 2.41942 20.915 1.88679 21.2195V3.5918C1.88535 3.14172 2.0625 2.70943 2.37937 2.38979C2.69625 2.07015 3.12698 1.88926 3.57706 1.88679Z" fill="#03045E"/>
</svg>
