<svg width="223" height="174" viewBox="0 0 223 174" fill="none" xmlns="http://www.w3.org/2000/svg">
<path d="M110.919 18.3006C116.732 14.7601 122.016 11.061 127.723 8.15465C138.609 2.65891 150.393 0.598011 162.441 0.122419C174.173 -0.353174 185.798 0.809386 197.318 3.29303C201.07 4.08569 203.712 5.93521 204.822 9.84564C205.033 10.5855 206.196 11.3253 207.041 11.5366C210.37 12.3821 213.752 12.9106 217.081 13.7561C220.939 14.7073 223 17.4551 223 21.4184C223 65.5428 223 109.72 223 153.844C223 159.393 218.825 162.722 213.224 161.507C200.172 158.653 187.014 157.174 173.644 157.702C156.945 158.336 141.092 161.877 126.508 170.49C123.971 171.97 120.695 172.181 117.788 172.921C117.207 173.08 116.573 172.921 115.939 172.974C106.744 173.608 98.3948 171.917 89.9398 167.32C72.8713 158.125 54.0062 156.539 34.9825 158.019C26.4218 158.653 17.914 160.291 9.40616 161.665C4.01611 162.511 0 159.287 0 153.792C0 109.72 0 65.7013 0 21.6298C0 17.4023 2.11374 14.7073 6.28839 13.7032C9.51185 12.9106 12.841 12.435 16.0645 11.5366C16.9628 11.3253 17.9668 10.3741 18.2839 9.52858C19.2879 6.62218 21.0318 4.50844 23.991 3.82147C44.3886 -0.828766 64.7863 -1.83279 85.0782 4.19138C94.8543 7.04493 103.573 11.8537 110.919 18.3006ZM114.776 149.828C115.886 149.141 116.414 148.877 116.89 148.507C124.447 142.959 132.849 139.26 141.938 137.04C159.482 132.654 177.026 133.394 194.57 136.776C197.952 137.41 198.533 137.04 198.533 133.605C198.533 124.516 198.533 115.48 198.533 106.391C198.533 103.643 199.749 102.005 201.81 102.216C204.241 102.428 204.98 104.066 204.98 106.285C204.98 115.956 205.086 125.679 204.927 135.349C204.875 141.056 200.383 144.597 194.782 143.434C181.571 140.739 168.307 139.577 154.885 141.268C142.202 142.853 130.365 146.763 119.902 154.373C113.878 158.759 109.069 158.759 103.045 154.373C96.5981 149.617 89.4114 146.288 81.749 144.068C64.6806 139.154 47.4536 139.63 30.2794 143.117C22.0358 144.808 18.0197 141.69 18.0197 133.235C18.0197 114.582 18.0197 95.875 18.0197 77.2212C18.0197 68.3964 18.0197 59.6243 18.0197 50.7994C18.0197 48.58 18.8123 46.9418 21.2431 46.7305C23.1983 46.5719 24.4137 48.1044 24.4666 50.6937C24.5194 51.5921 24.4666 52.4376 24.4666 53.3359C24.4666 80.0219 24.4666 106.708 24.4666 133.447C24.4666 137.093 24.995 137.516 28.4827 136.829C41.0595 134.292 53.7948 133.341 66.5829 134.557C81.1149 135.93 94.6957 140.052 106.586 148.824C106.955 149.089 107.431 149.247 108.065 149.564C108.118 148.56 108.224 147.926 108.224 147.239C108.224 107.131 108.224 67.0753 108.171 26.967C108.171 25.7516 107.484 24.2191 106.586 23.4264C99.0289 16.5039 90.0455 12.1708 80.1637 9.63427C62.4611 5.03687 44.7585 6.14659 27.0559 9.7928C25.0479 10.2155 24.4137 11.3781 24.4137 13.3862C24.4666 20.2558 24.4137 27.1255 24.4666 33.9952C24.4666 36.2146 23.7268 37.8527 21.3488 38.0641C19.3936 38.2755 18.0725 36.5317 18.0197 33.8895C18.0197 33.2554 18.0197 32.6741 18.0197 32.04C18.0197 27.4954 18.0197 22.898 18.0197 18.0364C14.7962 18.6705 11.9955 19.3046 9.14194 19.7802C7.13389 20.0973 6.39408 21.0485 6.44692 23.1094C6.49976 66.1769 6.49976 109.297 6.49976 152.365C6.49976 155.377 6.71114 155.535 9.72322 154.901C20.5033 152.682 31.4419 151.361 42.4863 151.255C60.4002 151.044 77.9443 153.316 93.8502 162.035C100.614 165.734 107.273 167.32 114.723 166.685C114.882 166.685 115.093 166.685 115.252 166.685C118.792 167.003 121.963 165.998 125.028 164.149C135.755 157.702 147.486 154.162 159.799 152.523C177.502 150.145 195.099 151.255 212.59 154.796C216.553 155.588 216.553 155.588 216.553 151.572C216.553 109.033 216.553 66.4411 216.553 23.902C216.553 23.2151 216.712 22.4224 216.5 21.7883C216.289 21.207 215.813 20.4144 215.338 20.3087C212.061 19.4632 208.732 18.8291 205.033 17.9836C205.033 19.516 205.033 20.52 205.033 21.5769C205.033 43.7712 205.033 65.9655 205.033 88.2127C205.033 92.0174 203.923 93.8141 201.651 93.7084C199.485 93.6028 198.586 92.0174 198.586 88.2127C198.586 63.429 198.533 38.6982 198.639 13.9146C198.639 11.2724 197.741 10.1627 195.151 9.68711C180.197 6.72787 165.189 5.51247 150.023 8.15465C137.658 10.3212 126.349 14.8129 116.732 23.1094C115.252 24.4305 114.776 25.7516 114.776 27.6539C114.829 67.3923 114.829 107.131 114.829 146.869C114.776 147.609 114.776 148.454 114.776 149.828Z" fill="white"/>
<path d="M51.2583 78.8594C69.8064 79.0179 84.7611 81.5016 98.5533 89.0582C99.5574 89.5866 100.561 90.1679 101.46 90.8549C102.939 91.9646 103.204 93.5499 102.305 95.0824C101.407 96.6148 99.9273 97.1433 98.2363 96.3506C96.5981 95.558 95.0128 94.5539 93.3747 93.7084C80.3223 87.1558 66.3187 85.2535 51.8924 85.6234C47.1365 85.7819 42.4334 86.3103 37.6775 86.6274C36.9905 86.6802 36.3036 86.7859 35.5638 86.8388C33.5557 86.9973 32.0232 86.3103 31.7062 84.1437C31.3891 81.8715 32.763 80.6561 34.8768 80.4447C41.3237 79.8106 47.7706 79.2293 51.2583 78.8594Z" fill="white"/>
<path d="M168.413 78.542C175.071 79.1761 181.465 79.8102 187.859 80.4444C190.343 80.7086 191.664 82.1882 191.294 84.1963C190.871 86.4685 189.286 86.997 187.172 86.8913C179.721 86.4685 172.27 85.7287 164.819 85.7816C150.974 85.8344 137.816 88.7936 125.715 95.9275C123.601 97.1958 121.54 96.8259 120.642 95.1349C119.532 93.0211 120.431 91.4358 122.333 90.2733C130.735 85.2531 139.824 82.0297 149.442 80.55C155.889 79.5989 162.283 79.1761 168.413 78.542Z" fill="white"/>
<path d="M187.489 59.0961C178.453 58.9904 169.417 58.462 160.38 58.8319C148.279 59.3075 136.812 62.3724 126.243 68.5023C123.76 69.9819 121.593 69.7705 120.695 67.9738C119.638 65.8601 120.536 64.2748 122.439 63.1122C130.682 58.1978 139.613 55.1328 149.019 53.4947C161.173 51.3281 173.327 51.3809 185.534 53.0191C186.485 53.1248 187.436 53.2833 188.388 53.4418C190.448 53.8117 191.558 55.0271 191.294 57.088C191.03 59.2546 189.444 59.8887 187.489 59.8359C187.489 59.5717 187.489 59.3603 187.489 59.0961Z" fill="white"/>
<path d="M169.152 24.3779C175.018 24.9064 181.306 25.4876 187.595 26.1218C190.237 26.386 191.611 27.9185 191.294 29.9265C191.03 31.9874 189.286 32.8857 186.644 32.5687C169.628 30.2964 152.771 30.5078 136.442 36.532C132.902 37.853 129.573 39.6497 126.191 41.3407C123.443 42.7147 121.752 42.609 120.642 40.8123C119.585 39.0156 120.325 37.2189 122.809 35.7393C132.637 29.8737 143.365 26.7559 154.673 25.5405C159.376 25.0121 164.027 24.8007 169.152 24.3779Z" fill="white"/>
<path d="M54.2174 58.1446C48.2461 58.673 42.3804 59.1486 36.5148 59.7299C33.6612 59.9941 31.9174 59.1486 31.6532 57.0349C31.389 54.974 32.6044 53.7586 35.4579 53.3358C54.7458 50.4823 73.6639 51.2221 91.9477 58.7787C94.9598 60.047 97.8134 61.5794 100.614 63.2176C102.781 64.433 103.415 66.441 102.305 68.0263C100.931 70.0344 99.0288 69.8759 97.1793 68.7662C89.0942 63.8517 80.2165 61.051 70.9688 59.7299C65.3674 58.8844 59.766 58.6202 54.2174 58.1446Z" fill="white"/>
<path d="M102.728 38.5398C102.728 41.7633 100.192 43.0315 97.5494 41.8161C93.2691 39.8081 89.0945 37.4829 84.6556 35.8976C71.9203 31.3531 58.7094 30.6661 45.34 31.5645C42.1693 31.7758 39.0516 32.1986 35.9338 32.6213C33.7672 32.8855 32.2876 32.1457 31.7063 30.032C31.2307 28.0768 32.5518 26.4386 34.9826 26.1216C44.653 24.7476 54.4291 24.1135 64.2051 25.0118C75.5137 26.0159 86.4523 28.4467 96.5983 33.731C98.1307 34.5237 99.7689 35.3164 101.143 36.3732C101.935 37.0073 102.411 38.0642 102.728 38.5398Z" fill="white"/>
<path d="M102.728 119.602C102.834 123.143 100.244 124.622 97.7079 123.354C94.643 121.822 91.6838 120.078 88.5132 118.81C74.8795 113.261 60.6117 112.046 46.0269 113.102C42.5921 113.367 39.2101 113.842 35.7753 114.212C33.6615 114.424 32.0234 113.737 31.7063 111.464C31.3364 109.192 32.816 107.924 34.8241 107.66C57.1769 104.806 79.107 105.44 99.399 116.854C100.826 117.594 101.935 118.915 102.728 119.602Z" fill="white"/>
<path d="M191.347 110.619C191.347 113.155 189.55 114.318 186.855 114.106C179.51 113.578 172.112 112.68 164.766 112.838C150.974 113.102 137.71 115.903 125.662 123.09C123.495 124.358 121.646 123.988 120.642 122.244C119.638 120.5 120.325 118.651 122.65 117.277C134.487 110.302 147.434 106.867 161.067 106.497C169.839 106.233 178.611 107.078 187.383 107.501C189.55 107.607 191.188 108.505 191.347 110.619Z" fill="white"/>
</svg>
