<svg width="28" height="29" viewBox="0 0 28 29" fill="none" xmlns="http://www.w3.org/2000/svg">
<path d="M5.88635 7.55554H23.7511C24.1131 7.55556 24.4711 7.63689 24.8019 7.7943C25.1328 7.95171 25.4292 8.1817 25.6721 8.46945C25.915 8.7572 26.099 9.09632 26.2121 9.46495C26.3253 9.83359 26.3652 10.2236 26.3291 10.6097L25.5518 18.943C25.4879 19.6285 25.1887 20.264 24.7123 20.7262C24.2359 21.1884 23.6163 21.4444 22.9738 21.4444H10.6019C10.0027 21.4447 9.42197 21.2223 8.95853 20.8151C8.49509 20.4079 8.17762 19.841 8.06018 19.2111L5.88635 7.55554Z" stroke="black" stroke-width="3" stroke-linejoin="round"/>
<path d="M20.1368 27H22.7278M5.88646 7.55556L4.83712 3.05139C4.76694 2.75105 4.60516 2.48446 4.37749 2.29397C4.14981 2.10348 3.8693 2.00001 3.58049 2H2L5.88646 7.55556ZM9.77292 27H12.3639H9.77292Z" stroke="black" stroke-width="3" stroke-linecap="round" stroke-linejoin="round"/>
</svg>
