<svg width="124" height="118" viewBox="0 0 124 118" fill="none" xmlns="http://www.w3.org/2000/svg">
<path d="M95.377 4.54649C95.3787 3.64771 95.0999 2.76868 94.576 2.02086C94.0521 1.27303 93.3066 0.690087 92.4341 0.345919C91.5616 0.00175144 90.6014 -0.0881363 89.6752 0.0876511C88.7489 0.263438 87.8984 0.696985 87.2314 1.33333L68.1551 19.4868C67.7125 19.9091 67.3617 20.4102 67.1228 20.9615C66.8838 21.5128 66.7614 22.1036 66.7625 22.7V48.0513L59.6947 54.7681C58.2809 54.4111 56.7997 54.3677 55.3654 54.6412C53.9311 54.9147 52.5819 55.4979 51.4218 56.3459C50.2617 57.1938 49.3216 58.2839 48.6739 59.5321C48.0263 60.7803 47.6884 62.1533 47.6862 63.5453C47.6868 64.8371 47.9772 66.1138 48.5378 67.2902C49.0985 68.4666 49.9166 69.5156 50.9374 70.3671C51.9582 71.2185 53.1582 71.8528 54.4572 72.2275C55.7562 72.6023 57.1244 72.7089 58.4702 72.5402C59.8159 72.3715 61.1084 71.9313 62.2611 71.2492C63.4138 70.5671 64.4003 69.6587 65.1545 68.5847C65.9088 67.5107 66.4134 66.2959 66.6348 65.0215C66.8562 63.747 66.7892 62.4423 66.4382 61.1945L73.506 54.4686H100.146C100.773 54.4697 101.394 54.3532 101.973 54.1258C102.552 53.8984 103.079 53.5646 103.523 53.1434L122.599 34.9899C123.268 34.3552 123.723 33.5458 123.908 32.6644C124.093 31.7829 123.998 30.8691 123.636 30.0389C123.275 29.2086 122.662 28.4992 121.876 28.0006C121.091 27.502 120.167 27.2367 119.222 27.2384H95.377V4.54649ZM113.919 56.0843C115.56 67.3863 113.43 78.8935 107.829 88.9814C102.228 99.0694 93.4391 107.229 82.7029 112.307C71.9667 117.386 59.8255 119.127 47.9932 117.286C36.1609 115.445 25.2351 110.114 16.7581 102.045C8.28106 93.9766 2.68101 83.5783 0.748419 72.318C-1.18417 61.0577 0.648322 49.5042 5.98722 39.2883C11.3261 29.0725 19.9017 20.7103 30.5036 15.3822C41.1054 10.054 53.198 8.02909 65.0743 9.59316L61.4212 13.0696C60.0911 14.3337 59.0358 15.8349 58.3157 17.4874C57.5956 19.1398 57.2248 20.9111 57.2244 22.7C48.7353 22.7 40.4368 25.0955 33.3783 29.5837C26.3199 34.0718 20.8185 40.451 17.5699 47.9145C14.3212 55.378 13.4713 63.5906 15.1274 71.5139C16.7835 79.4371 20.8714 86.715 26.8741 92.4274C32.8769 98.1397 40.5248 102.03 48.8508 103.606C57.1768 105.182 65.8069 104.373 73.6498 101.282C81.4927 98.19 88.1962 92.9548 92.9125 86.2378C97.6288 79.5208 100.146 71.6238 100.146 63.5453C103.939 63.5422 107.576 62.1056 110.257 59.5516L113.919 56.0843ZM57.2244 31.7767C50.6217 31.7767 44.1674 33.6399 38.6775 37.1307C33.1876 40.6215 28.9087 45.5831 26.382 51.388C23.8553 57.193 23.1942 63.5806 24.4823 69.7431C25.7704 75.9056 28.9499 81.5662 33.6186 86.0091C38.2874 90.452 44.2358 93.4777 50.7116 94.7035C57.1873 95.9293 63.8996 95.3002 69.9997 92.8957C76.0997 90.4912 81.3135 86.4193 84.9818 81.195C88.65 75.9707 90.6079 69.8286 90.6079 63.5453H77.4548L76.2625 64.6799C76.0332 68.167 74.7514 71.517 72.5709 74.3279C70.3903 77.1388 67.4037 79.2911 63.9695 80.5267C60.5352 81.7622 56.7993 82.0285 53.21 81.2934C49.6207 80.5583 46.3306 78.8532 43.7345 76.3827C41.1383 73.9121 39.3465 70.7812 38.5741 67.3655C37.8017 63.9498 38.0814 60.3946 39.3798 57.1265C40.6781 53.8584 42.9399 51.0163 45.8937 48.9412C48.8475 46.8662 52.3678 45.6464 56.0321 45.4282L57.2244 44.2936V31.7767Z" fill="#01024B"/>
</svg>
