<svg width="124" height="100" viewBox="0 0 124 100" fill="none" xmlns="http://www.w3.org/2000/svg">
<path d="M115.49 0H8.5098C6.25286 0 4.08836 0.857556 2.49246 2.38402C0.896567 3.91047 0 5.9808 0 8.13953V91.8605C0 94.0192 0.896567 96.0895 2.49246 97.616C4.08836 99.1424 6.25286 100 8.5098 100H16.6549C17.341 99.9992 18.013 99.8133 18.5936 99.4636C19.1742 99.1139 19.6399 98.6147 19.9373 98.0233C22.3987 93.0452 26.2877 88.8382 31.1517 85.892C36.0157 82.9459 41.6545 81.3818 47.4118 81.3818C53.169 81.3818 58.8078 82.9459 63.6718 85.892C68.5358 88.8382 72.4249 93.0452 74.8863 98.0233C75.1836 98.6147 75.6493 99.1139 76.2299 99.4636C76.8105 99.8133 77.4825 99.9992 78.1686 100H115.49C117.747 100 119.912 99.1424 121.508 97.616C123.103 96.0895 124 94.0192 124 91.8605V8.13953C124 5.9808 123.103 3.91047 121.508 2.38402C119.912 0.857556 117.747 0 115.49 0ZM31.6078 59.3023C31.6078 56.3126 32.5347 53.39 34.2713 50.9042C36.0078 48.4183 38.4761 46.4808 41.3639 45.3367C44.2517 44.1926 47.4293 43.8932 50.495 44.4765C53.5606 45.0598 56.3766 46.4995 58.5868 48.6135C60.797 50.7276 62.3022 53.421 62.912 56.3533C63.5218 59.2856 63.2089 62.3249 62.0127 65.0871C60.8165 67.8492 58.7909 70.2101 56.192 71.8711C53.593 73.5321 50.5375 74.4186 47.4118 74.4186C43.2252 74.4033 39.2147 72.8058 36.2544 69.9742C33.294 67.1427 31.6239 63.3067 31.6078 59.3023ZM116.706 91.8605C116.706 92.1689 116.578 92.4646 116.35 92.6827C116.122 92.9007 115.813 93.0233 115.49 93.0233H80.4176C76.1625 85.7213 69.3977 80.0519 61.2706 76.9767C65.1489 74.1946 68.0137 70.3158 69.4592 65.8897C70.9046 61.4637 70.8575 56.7149 69.3245 52.3159C67.7915 47.9169 64.8502 44.0908 60.9174 41.3795C56.9846 38.6683 52.2596 37.2093 47.4118 37.2093C42.5639 37.2093 37.8389 38.6683 33.9061 41.3795C29.9733 44.0908 27.0321 47.9169 25.499 52.3159C23.966 56.7149 23.9189 61.4637 25.3644 65.8897C26.8099 70.3158 29.6746 74.1946 33.5529 76.9767C25.4258 80.0519 18.661 85.7213 14.4059 93.0233H8.5098C8.19215 93.0091 7.89146 92.882 7.6666 92.667C7.44175 92.4519 7.30892 92.1643 7.29412 91.8605V8.13953C7.29412 7.83114 7.4222 7.53538 7.65018 7.31732C7.87817 7.09925 8.18738 6.97674 8.5098 6.97674H115.49C115.813 6.97674 116.122 7.09925 116.35 7.31732C116.578 7.53538 116.706 7.83114 116.706 8.13953V91.8605ZM104.549 22.093V77.907C104.549 78.8322 104.165 79.7194 103.481 80.3736C102.797 81.0278 101.869 81.3954 100.902 81.3954H91.1765C90.2092 81.3954 89.2816 81.0278 88.5976 80.3736C87.9137 79.7194 87.5294 78.8322 87.5294 77.907C87.5294 76.9818 87.9137 76.0945 88.5976 75.4403C89.2816 74.7861 90.2092 74.4186 91.1765 74.4186H97.2549V25.5814H26.7451V31.3953C26.7451 32.3205 26.3609 33.2078 25.6769 33.862C24.9929 34.5162 24.0653 34.8837 23.098 34.8837C22.1308 34.8837 21.2031 34.5162 20.5192 33.862C19.8352 33.2078 19.451 32.3205 19.451 31.3953V22.093C19.451 21.1678 19.8352 20.2806 20.5192 19.6264C21.2031 18.9722 22.1308 18.6047 23.098 18.6047H100.902C101.869 18.6047 102.797 18.9722 103.481 19.6264C104.165 20.2806 104.549 21.1678 104.549 22.093Z" fill="#01024B"/>
</svg>
