<svg width="123" height="109" viewBox="0 0 123 109" fill="none" xmlns="http://www.w3.org/2000/svg">
<path d="M109.068 13.9031C111.662 13.9031 114.081 13.9031 116.5 13.9031C120.872 13.9031 123 16.06 123 20.4611C123 44.9445 123 69.3988 123 93.8822C123 102.597 117.083 108.514 108.339 108.514C77.1228 108.514 45.8773 108.514 14.6609 108.514C5.85853 108.485 0 102.597 0 93.7656C0 64.7062 0 35.6758 0 6.6455C0 2.04028 2.06943 0 6.70379 0C38.6197 0 70.5064 0 102.422 0C107.057 0 109.068 2.01114 109.068 6.67464C109.068 8.97725 109.068 11.309 109.068 13.9031ZM109.126 19.5867C109.097 20.0822 109.068 20.4028 109.068 20.7526C109.068 43.7204 109.068 66.7173 109.039 89.6851C109.039 91.055 109.563 91.6962 110.904 91.9294C112.507 92.2208 113.323 93.4742 113.119 94.9898C112.915 96.4763 111.749 97.4673 110.117 97.3507C109.214 97.2924 108.252 97.0884 107.465 96.6803C104.521 95.223 103.442 92.6872 103.442 89.5102C103.472 62.1995 103.442 34.918 103.442 7.60735C103.442 6.99526 103.442 6.38318 103.442 5.7128C70.7104 5.7128 38.1533 5.7128 5.50877 5.7128C5.50877 6.32488 5.50877 6.82038 5.50877 7.28673C5.50877 36.0547 5.50877 64.7936 5.50877 93.5616C5.50877 99.5659 8.86066 102.918 14.9232 102.918C45.9647 102.918 77.0062 102.918 108.048 102.918C113.994 102.918 117.375 99.5367 117.375 93.6199C117.375 69.4863 117.375 45.3235 117.375 21.1898C117.375 20.6652 117.375 20.1405 117.375 19.5576C114.577 19.5867 111.924 19.5867 109.126 19.5867Z" fill="#01024B"/>
<path d="M33.5772 30.6043C38.0076 30.6043 42.4088 30.6043 46.8391 30.6043C49.3457 30.6043 50.3659 31.6244 50.395 34.131C50.4242 42.9626 50.395 51.7941 50.395 60.6547C50.395 63.2488 49.3749 64.269 46.7808 64.269C37.9784 64.269 29.2052 64.269 20.4028 64.269C17.6922 64.269 16.7303 63.3071 16.7303 60.5673C16.7303 51.8232 16.7303 43.0791 16.7303 34.3351C16.7303 31.5078 17.663 30.5751 20.4903 30.5751C24.8332 30.6043 29.2052 30.6043 33.5772 30.6043ZM44.6531 58.6145C44.6531 51.0363 44.6531 43.6621 44.6531 36.2588C37.1623 36.2588 29.8173 36.2588 22.3557 36.2588C22.3557 43.7495 22.3557 51.1528 22.3557 58.6145C29.8464 58.6145 37.1915 58.6145 44.6531 58.6145Z" fill="#01024B"/>
<path d="M54.359 22.2391C43.1374 22.2391 31.9159 22.2391 20.6943 22.2391C17.9837 22.2391 16.7303 21.3647 16.7303 19.4701C16.7303 17.6047 18.0419 16.7012 20.6943 16.7012C43.2249 16.7012 65.7554 16.7012 88.286 16.7012C88.9273 16.7012 89.5685 16.7012 90.1806 16.8178C91.4922 17.0801 92.3666 18.246 92.3374 19.5576C92.3083 20.8983 91.4047 21.9476 90.0348 22.1517C89.4227 22.2391 88.7815 22.2391 88.1403 22.2391C76.8896 22.2391 65.6389 22.2391 54.359 22.2391Z" fill="#01024B"/>
<path d="M75.6363 86.2749C79.9209 86.2749 84.1763 86.2749 88.4609 86.2749C88.9855 86.2749 89.5393 86.2749 90.064 86.3623C91.4047 86.5955 92.3083 87.6448 92.3666 88.9855C92.3957 90.2972 91.5213 91.4339 90.2097 91.7254C89.6559 91.8419 89.0438 91.8419 88.4609 91.8419C79.8626 91.8419 71.2642 91.8419 62.6659 91.8419C62.3744 91.8419 62.0829 91.8419 61.7915 91.8419C59.9844 91.7545 58.8185 90.7052 58.7893 89.1313C58.7602 87.499 59.9261 86.3332 61.8206 86.304C66.4258 86.2457 71.031 86.2749 75.6363 86.2749Z" fill="#01024B"/>
<path d="M33.519 77.9097C29.0012 77.9097 24.4834 77.9097 19.9656 77.9097C18.6249 77.9097 17.5756 77.5017 16.9927 76.2483C16.264 74.6744 17.1384 72.8964 18.8581 72.5175C19.4701 72.3718 20.1114 72.3718 20.7235 72.3718C29.2635 72.3718 37.8036 72.3718 46.3727 72.3718C49.0251 72.3718 50.3659 73.3045 50.3367 75.1699C50.3367 77.0062 48.996 77.9389 46.3436 77.9389C42.059 77.9097 37.8036 77.9097 33.519 77.9097Z" fill="#01024B"/>
<path d="M33.4607 91.8128C29.0303 91.8128 24.6291 91.8419 20.1988 91.7836C19.3827 91.7836 18.2751 91.6088 17.8088 91.0841C17.2258 90.4137 16.9052 89.3062 16.9344 88.3735C16.9344 87.2659 17.8379 86.5955 18.9455 86.3623C19.4118 86.2749 19.9073 86.2457 20.4028 86.2457C29.2052 86.2457 37.9784 86.2166 46.7808 86.2749C47.7427 86.2749 48.8211 86.5955 49.5789 87.1493C50.4825 87.8197 50.5991 88.9855 50.1327 90.0931C49.6372 91.3173 48.5879 91.7837 47.3346 91.8128C42.6711 91.8128 38.0659 91.8128 33.4607 91.8128Z" fill="#01024B"/>
<path d="M75.5197 36.1713C71.2059 36.1713 66.863 36.1713 62.5493 36.1713C61.9664 36.1713 61.3834 36.1422 60.8296 35.9964C59.4597 35.6758 58.8185 34.6848 58.7602 33.3441C58.7019 32.0616 59.722 30.8957 61.0045 30.6917C61.4417 30.6043 61.8789 30.6043 62.3161 30.6043C71.1476 30.6043 79.9791 30.6043 88.8398 30.6043C89.2187 30.6043 89.6268 30.6043 90.0057 30.6626C91.3173 30.8666 92.2791 31.945 92.3374 33.2566C92.3957 34.5682 91.5796 35.705 90.2097 35.9964C89.6559 36.113 89.0438 36.1422 88.49 36.1422C84.1763 36.1713 79.8626 36.1713 75.5197 36.1713Z" fill="#01024B"/>
<path d="M75.6363 44.5073C79.9209 44.5073 84.1763 44.5073 88.4609 44.5073C89.0438 44.5073 89.6268 44.5073 90.2097 44.6239C91.5505 44.9154 92.2791 45.819 92.3666 47.1889C92.454 48.4713 91.6379 49.5498 90.3554 49.8704C89.7434 50.0161 89.1021 50.0744 88.49 50.0744C79.8917 50.0744 71.2934 50.0744 62.695 50.0744C62.491 50.0744 62.3161 50.0744 62.1121 50.0744C59.9844 49.987 58.731 48.9085 58.7893 47.218C58.8476 45.5566 60.0427 44.5365 62.1121 44.5073C66.6007 44.5073 71.1185 44.5073 75.6363 44.5073Z" fill="#01024B"/>
<path d="M75.4905 63.9775C71.2059 63.9775 66.9505 63.9775 62.6659 63.9775C62.0829 63.9775 61.5 63.9775 60.9171 63.8609C59.5763 63.5694 58.8476 62.6367 58.7602 61.296C58.6727 60.0427 59.518 58.9351 60.7713 58.6145C61.3834 58.4687 62.0246 58.4104 62.6367 58.4104C71.2351 58.4104 79.8334 58.4104 88.4317 58.4104C88.6358 58.4104 88.8107 58.4104 89.0147 58.4104C91.1424 58.4979 92.3666 59.5472 92.3374 61.2668C92.3083 62.9282 91.0841 63.9483 89.0147 63.9775C84.5261 64.0066 80.0083 63.9775 75.4905 63.9775Z" fill="#01024B"/>
<path d="M75.6363 77.9097C71.1768 77.9097 66.6881 77.9389 62.2287 77.8806C61.4417 77.8806 60.5964 77.6474 59.8969 77.2685C58.9351 76.7147 58.6436 75.7237 58.8476 74.6161C59.0517 73.5085 59.6929 72.7799 60.8005 72.5175C61.3543 72.4009 61.9664 72.3427 62.5201 72.3427C71.2059 72.3427 79.8917 72.3427 88.6066 72.3427C89.1021 72.3427 89.5685 72.3718 90.064 72.4592C91.5213 72.7507 92.3957 73.8291 92.3666 75.1991C92.3083 76.5981 91.259 77.764 89.7725 77.8514C87.9362 77.9389 86.0709 77.9097 84.2346 77.9097C81.3491 77.9097 78.4927 77.9097 75.6363 77.9097Z" fill="#01024B"/>
</svg>
