<svg width="45" height="45" viewBox="0 0 45 45" fill="none" xmlns="http://www.w3.org/2000/svg">
<path d="M32.1429 35.7955V41.9318C32.1429 42.7841 32.3772 43.5085 32.846 44.1051C33.3147 44.7017 33.8839 45 34.5536 45H42.5893C43.2589 45 43.8281 44.7017 44.2969 44.1051C44.7656 43.5085 45 42.7841 45 41.9318V35.7955C45 34.9432 44.7656 34.2188 44.2969 33.6222C43.8281 33.0256 43.2589 32.7273 42.5893 32.7273H34.5536C33.8839 32.7273 33.3147 33.0256 32.846 33.6222C32.3772 34.2188 32.1429 34.9432 32.1429 35.7955ZM32.1429 19.4318V25.5682C32.1429 26.4205 32.3772 27.1449 32.846 27.7415C33.3147 28.3381 33.8839 28.6364 34.5536 28.6364H42.5893C43.2589 28.6364 43.8281 28.3381 44.2969 27.7415C44.7656 27.1449 45 26.4205 45 25.5682V19.4318C45 18.5795 44.7656 17.8551 44.2969 17.2585C43.8281 16.6619 43.2589 16.3636 42.5893 16.3636H34.5536C33.8839 16.3636 33.3147 16.6619 32.846 17.2585C32.3772 17.8551 32.1429 18.5795 32.1429 19.4318ZM16.0714 35.7955V41.9318C16.0714 42.7841 16.3058 43.5085 16.7746 44.1051C17.2433 44.7017 17.8125 45 18.4821 45H26.5179C27.1875 45 27.7567 44.7017 28.2254 44.1051C28.6942 43.5085 28.9286 42.7841 28.9286 41.9318V35.7955C28.9286 34.9432 28.6942 34.2188 28.2254 33.6222C27.7567 33.0256 27.1875 32.7273 26.5179 32.7273H18.4821C17.8125 32.7273 17.2433 33.0256 16.7746 33.6222C16.3058 34.2188 16.0714 34.9432 16.0714 35.7955ZM32.1429 3.06818V9.20455C32.1429 10.0568 32.3772 10.7812 32.846 11.3778C33.3147 11.9744 33.8839 12.2727 34.5536 12.2727H42.5893C43.2589 12.2727 43.8281 11.9744 44.2969 11.3778C44.7656 10.7812 45 10.0568 45 9.20455V3.06818C45 2.21591 44.7656 1.49148 44.2969 0.894886C43.8281 0.298295 43.2589 0 42.5893 0H34.5536C33.8839 0 33.3147 0.298295 32.846 0.894886C32.3772 1.49148 32.1429 2.21591 32.1429 3.06818ZM16.0714 19.4318V25.5682C16.0714 26.4205 16.3058 27.1449 16.7746 27.7415C17.2433 28.3381 17.8125 28.6364 18.4821 28.6364H26.5179C27.1875 28.6364 27.7567 28.3381 28.2254 27.7415C28.6942 27.1449 28.9286 26.4205 28.9286 25.5682V19.4318C28.9286 18.5795 28.6942 17.8551 28.2254 17.2585C27.7567 16.6619 27.1875 16.3636 26.5179 16.3636H18.4821C17.8125 16.3636 17.2433 16.6619 16.7746 17.2585C16.3058 17.8551 16.0714 18.5795 16.0714 19.4318ZM0 35.7955V41.9318C0 42.7841 0.234375 43.5085 0.703125 44.1051C1.17188 44.7017 1.74107 45 2.41072 45H10.4464C11.1161 45 11.6853 44.7017 12.154 44.1051C12.6228 43.5085 12.8571 42.7841 12.8571 41.9318V35.7955C12.8571 34.9432 12.6228 34.2188 12.154 33.6222C11.6853 33.0256 11.1161 32.7273 10.4464 32.7273H2.41072C1.74107 32.7273 1.17188 33.0256 0.703125 33.6222C0.234375 34.2188 0 34.9432 0 35.7955ZM16.0714 3.06818V9.20455C16.0714 10.0568 16.3058 10.7812 16.7746 11.3778C17.2433 11.9744 17.8125 12.2727 18.4821 12.2727H26.5179C27.1875 12.2727 27.7567 11.9744 28.2254 11.3778C28.6942 10.7812 28.9286 10.0568 28.9286 9.20455V3.06818C28.9286 2.21591 28.6942 1.49148 28.2254 0.894886C27.7567 0.298295 27.1875 0 26.5179 0H18.4821C17.8125 0 17.2433 0.298295 16.7746 0.894886C16.3058 1.49148 16.0714 2.21591 16.0714 3.06818ZM0 19.4318V25.5682C0 26.4205 0.234375 27.1449 0.703125 27.7415C1.17188 28.3381 1.74107 28.6364 2.41072 28.6364H10.4464C11.1161 28.6364 11.6853 28.3381 12.154 27.7415C12.6228 27.1449 12.8571 26.4205 12.8571 25.5682V19.4318C12.8571 18.5795 12.6228 17.8551 12.154 17.2585C11.6853 16.6619 11.1161 16.3636 10.4464 16.3636H2.41072C1.74107 16.3636 1.17188 16.6619 0.703125 17.2585C0.234375 17.8551 0 18.5795 0 19.4318ZM0 3.06818V9.20455C0 10.0568 0.234375 10.7812 0.703125 11.3778C1.17188 11.9744 1.74107 12.2727 2.41072 12.2727H10.4464C11.1161 12.2727 11.6853 11.9744 12.154 11.3778C12.6228 10.7812 12.8571 10.0568 12.8571 9.20455V3.06818C12.8571 2.21591 12.6228 1.49148 12.154 0.894886C11.6853 0.298295 11.1161 0 10.4464 0H2.41072C1.74107 0 1.17188 0.298295 0.703125 0.894886C0.234375 1.49148 0 2.21591 0 3.06818Z" fill="black"/>
</svg>
