<?xml version="1.0" encoding="UTF-8"?>
<svg xmlns="http://www.w3.org/2000/svg" xmlns:xlink="http://www.w3.org/1999/xlink" version="1.1" id="Layer_1" x="0px" y="0px" viewBox="0 0 32 32" style="enable-background:new 0 0 32 32;" xml:space="preserve" width="512" height="512">
<g id="Layer_35">
	<path d="M29.5,5v22c0,1.654-1.346,3-3,3H13c-1.654,0-3-1.346-3-3v-7c-0.016-1.3,2.017-1.296,2,0v7c0,0.552,0.448,1,1,1h13.5   c0.552,0,1-0.448,1-1V5c0-0.552-0.448-1-1-1H13c-0.552,0-1,0.448-1,1v7c0.023,1.3-2.022,1.296-2,0V5c0-1.654,1.346-3,3-3h13.5   C28.154,2,29.5,3.346,29.5,5z M6.13,17H18.5c0.553,0,1-0.447,1-1c0-0.553-0.447-1-1-1H6.13l2.534-2.253   c0.982-0.844-0.372-2.375-1.328-1.494l-4.5,4c-0.436,0.401-0.437,1.093,0,1.494C3.2,16.948,7.58,21.295,8,21   c0.881,0.031,1.359-1.174,0.664-1.747L6.13,17z"/>
</g>
</svg>
