<svg width="22" height="25" viewBox="0 0 22 25" fill="none" xmlns="http://www.w3.org/2000/svg">
<path d="M18.6869 14.4825V10C18.6869 5.97875 16.1349 2.59125 12.6779 1.5725C12.3357 0.65 11.4994 0 10.5114 0C9.5233 0 8.68706 0.65 8.34486 1.5725C4.88778 2.5925 2.33586 5.97875 2.33586 10V14.4825L0.342204 16.6162C0.233537 16.7321 0.147358 16.8699 0.0886288 17.0215C0.0298991 17.1732 -0.000221263 17.3358 1.22361e-06 17.5V20C1.22361e-06 20.3315 0.12305 20.6495 0.34208 20.8839C0.561109 21.1183 0.858176 21.25 1.16793 21.25H19.8548C20.1646 21.25 20.4616 21.1183 20.6806 20.8839C20.8997 20.6495 21.0227 20.3315 21.0227 20V17.5C21.0229 17.3358 20.9928 17.1732 20.9341 17.0215C20.8754 16.8699 20.7892 16.7321 20.6805 16.6162L18.6869 14.4825ZM18.6869 18.75H2.33586V18.0175L4.32951 15.8837C4.43818 15.7679 4.52436 15.6301 4.58309 15.4785C4.64182 15.3268 4.67194 15.1642 4.67172 15V10C4.67172 6.55375 7.29138 3.75 10.5114 3.75C13.7313 3.75 16.351 6.55375 16.351 10V15C16.351 15.3325 16.4736 15.65 16.6932 15.8837L18.6869 18.0175V18.75ZM10.5114 25C11.2347 25.001 11.9403 24.7607 12.5301 24.3127C13.12 23.8647 13.5647 23.2311 13.8026 22.5H7.22014C7.458 23.2311 7.90277 23.8647 8.49261 24.3127C9.08245 24.7607 9.78807 25.001 10.5114 25Z" fill="black"/>
</svg>
