<svg width="40" height="40" viewBox="0 0 40 40" fill="none" xmlns="http://www.w3.org/2000/svg">
<path d="M19.9998 8.57153C18.5871 8.57153 17.2061 8.99045 16.0314 9.77532C14.8568 10.5602 13.9413 11.6758 13.4007 12.9809C12.86 14.2861 12.7186 15.7223 12.9942 17.1079C13.2698 18.4935 13.9501 19.7662 14.949 20.7652C15.948 21.7641 17.2207 22.4444 18.6063 22.72C19.9919 22.9956 21.4281 22.8542 22.7332 22.3135C24.0384 21.7729 25.154 20.8574 25.9389 19.6827C26.7237 18.5081 27.1426 17.1271 27.1426 15.7144C27.1426 13.82 26.3901 12.0032 25.0506 10.6636C23.711 9.32408 21.8942 8.57153 19.9998 8.57153ZM19.9998 20.0001C19.1522 20.0001 18.3236 19.7487 17.6188 19.2778C16.914 18.8069 16.3647 18.1376 16.0403 17.3545C15.7159 16.5713 15.6311 15.7096 15.7964 14.8783C15.9618 14.0469 16.37 13.2833 16.9693 12.6839C17.5687 12.0846 18.3323 11.6764 19.1637 11.511C19.995 11.3457 20.8568 11.4305 21.6399 11.7549C22.423 12.0793 23.0923 12.6286 23.5632 13.3334C24.0342 14.0382 24.2855 14.8668 24.2855 15.7144C24.2844 16.8507 23.8325 17.9401 23.029 18.7436C22.2255 19.5471 21.1361 19.999 19.9998 20.0001Z" fill="white"/>
<path d="M20 0C16.0444 0 12.1776 1.17298 8.8886 3.37061C5.59962 5.56823 3.03617 8.69181 1.52242 12.3463C0.00866566 16.0009 -0.387401 20.0222 0.384303 23.9018C1.15601 27.7814 3.06082 31.3451 5.85787 34.1421C8.65492 36.9392 12.2186 38.844 16.0982 39.6157C19.9778 40.3874 23.9991 39.9913 27.6537 38.4776C31.3082 36.9638 34.4318 34.4004 36.6294 31.1114C38.827 27.8224 40 23.9556 40 20C39.9939 14.6975 37.8849 9.61396 34.1355 5.86454C30.386 2.11513 25.3025 0.0060496 20 0ZM11.4286 34.8243V32.8571C11.4297 31.7208 11.8816 30.6314 12.6851 29.8279C13.4886 29.0245 14.578 28.5726 15.7143 28.5714H24.2857C25.422 28.5726 26.5114 29.0245 27.3149 29.8279C28.1184 30.6314 28.5703 31.7208 28.5714 32.8571V34.8243C25.9702 36.3431 23.0122 37.1435 20 37.1435C16.9878 37.1435 14.0298 36.3431 11.4286 34.8243ZM31.4171 32.7514C31.3887 30.8776 30.6252 29.09 29.2913 27.7737C27.9574 26.4574 26.1597 25.7178 24.2857 25.7143H15.7143C13.8403 25.7178 12.0426 26.4574 10.7087 27.7737C9.37478 29.09 8.61133 30.8776 8.58286 32.7514C5.99224 30.4382 4.16534 27.3927 3.34406 24.0181C2.52278 20.6435 2.74586 17.0991 3.98378 13.8541C5.22169 10.6091 7.41604 7.81667 10.2763 5.84652C13.1365 3.87638 16.5276 2.82146 20.0007 2.82146C23.4738 2.82146 26.865 3.87638 29.7252 5.84652C32.5854 7.81667 34.7797 10.6091 36.0177 13.8541C37.2556 17.0991 37.4787 20.6435 36.6574 24.0181C35.8361 27.3927 34.0078 30.4382 31.4171 32.7514Z" fill="white"/>
</svg>
